<mxfile host="65bd71144e">
    <diagram id="om_oi36MF1jIUzn6utDR" name="ページ1">
        <mxGraphModel dx="3760" dy="1361" grid="1" gridSize="10" guides="1" tooltips="1" connect="1" arrows="1" fold="1" page="1" pageScale="1" pageWidth="1200" pageHeight="900" background="#ffffff" math="0" shadow="0">
            <root>
                <mxCell id="0"/>
                <mxCell id="1" parent="0"/>
                <mxCell id="342" value="PC" style="rounded=0;whiteSpace=wrap;html=1;align=left;verticalAlign=top;spacing=10;fillColor=none;" vertex="1" parent="1">
                    <mxGeometry x="39" y="640" width="320" height="320" as="geometry"/>
                </mxCell>
                <mxCell id="140" value="pod" style="rounded=0;whiteSpace=wrap;html=1;align=left;verticalAlign=top;spacing=10;fillColor=none;" parent="1" vertex="1">
                    <mxGeometry x="1080" y="280" width="160" height="200" as="geometry"/>
                </mxCell>
                <mxCell id="80" value="" style="endArrow=none;html=1;fontColor=#CCCCCC;strokeColor=#666666;" parent="1" edge="1">
                    <mxGeometry width="50" height="50" relative="1" as="geometry">
                        <mxPoint x="-480" y="120" as="sourcePoint"/>
                        <mxPoint x="2160" y="120" as="targetPoint"/>
                    </mxGeometry>
                </mxCell>
                <mxCell id="81" value="" style="endArrow=none;html=1;fontColor=#CCCCCC;strokeColor=#666666;" parent="1" edge="1">
                    <mxGeometry width="50" height="50" relative="1" as="geometry">
                        <mxPoint x="440" y="40" as="sourcePoint"/>
                        <mxPoint x="440" y="1600" as="targetPoint"/>
                    </mxGeometry>
                </mxCell>
                <mxCell id="82" value="" style="endArrow=none;html=1;fontColor=#CCCCCC;strokeColor=#666666;" parent="1" edge="1">
                    <mxGeometry width="50" height="50" relative="1" as="geometry">
                        <mxPoint x="920" y="40" as="sourcePoint"/>
                        <mxPoint x="920" y="1600" as="targetPoint"/>
                    </mxGeometry>
                </mxCell>
                <mxCell id="83" value="Github" style="rounded=0;whiteSpace=wrap;html=1;fontStyle=1;labelBackgroundColor=none;sketch=1;curveFitting=1;jiggle=2;fillColor=#d0cee2;strokeColor=#56517e;fontSize=16;" parent="1" vertex="1">
                    <mxGeometry x="520" y="20" width="320" height="80" as="geometry"/>
                </mxCell>
                <mxCell id="84" value="Repository" style="rounded=0;whiteSpace=wrap;html=1;align=left;verticalAlign=top;spacing=10;fillColor=none;fontStyle=1" parent="1" vertex="1">
                    <mxGeometry x="520" y="160" width="320" height="400" as="geometry"/>
                </mxCell>
                <mxCell id="85" value="feature" style="shape=cylinder3;whiteSpace=wrap;html=1;boundedLbl=1;backgroundOutline=1;size=15;" parent="1" vertex="1">
                    <mxGeometry x="600" y="200" width="160" height="80" as="geometry"/>
                </mxCell>
                <mxCell id="86" value="test" style="shape=cylinder3;whiteSpace=wrap;html=1;boundedLbl=1;backgroundOutline=1;size=15;" parent="1" vertex="1">
                    <mxGeometry x="600" y="320" width="160" height="80" as="geometry"/>
                </mxCell>
                <mxCell id="87" value="prod" style="shape=cylinder3;whiteSpace=wrap;html=1;boundedLbl=1;backgroundOutline=1;size=15;" parent="1" vertex="1">
                    <mxGeometry x="600" y="440" width="160" height="80" as="geometry"/>
                </mxCell>
                <mxCell id="88" value="Actions" style="rounded=0;whiteSpace=wrap;html=1;fillColor=none;align=left;verticalAlign=top;spacing=10;fontStyle=1" parent="1" vertex="1">
                    <mxGeometry x="520" y="640" width="320" height="520" as="geometry"/>
                </mxCell>
                <mxCell id="89" value="CI" style="rounded=0;whiteSpace=wrap;html=1;verticalAlign=top;align=left;spacing=10;fillColor=none;" parent="1" vertex="1">
                    <mxGeometry x="560" y="680" width="240" height="280" as="geometry"/>
                </mxCell>
                <mxCell id="91" value="CD" style="rounded=0;whiteSpace=wrap;html=1;verticalAlign=top;align=left;spacing=10;fillColor=none;" parent="1" vertex="1">
                    <mxGeometry x="560" y="1000" width="240" height="120" as="geometry"/>
                </mxCell>
                <mxCell id="93" value="静的解析" style="rounded=0;whiteSpace=wrap;html=1;" parent="1" vertex="1">
                    <mxGeometry x="600" y="720" width="160" height="40" as="geometry"/>
                </mxCell>
                <mxCell id="94" value="Build" style="rounded=0;whiteSpace=wrap;html=1;" parent="1" vertex="1">
                    <mxGeometry x="600" y="800" width="160" height="40" as="geometry"/>
                </mxCell>
                <mxCell id="95" value="Test" style="rounded=0;whiteSpace=wrap;html=1;" parent="1" vertex="1">
                    <mxGeometry x="600" y="880" width="160" height="40" as="geometry"/>
                </mxCell>
                <mxCell id="96" value="Deploy" style="rounded=0;whiteSpace=wrap;html=1;" parent="1" vertex="1">
                    <mxGeometry x="600" y="1040" width="160" height="40" as="geometry"/>
                </mxCell>
                <mxCell id="97" value="" style="endArrow=classic;html=1;entryX=0.5;entryY=0;entryDx=0;entryDy=0;entryPerimeter=0;exitX=0.5;exitY=1;exitDx=0;exitDy=0;exitPerimeter=0;" parent="1" source="85" target="86" edge="1">
                    <mxGeometry width="50" height="50" relative="1" as="geometry">
                        <mxPoint x="990" y="530" as="sourcePoint"/>
                        <mxPoint x="1040" y="480" as="targetPoint"/>
                    </mxGeometry>
                </mxCell>
                <mxCell id="98" value="" style="endArrow=classic;html=1;entryX=0.5;entryY=0;entryDx=0;entryDy=0;entryPerimeter=0;exitX=0.5;exitY=1;exitDx=0;exitDy=0;exitPerimeter=0;" parent="1" source="86" target="87" edge="1">
                    <mxGeometry width="50" height="50" relative="1" as="geometry">
                        <mxPoint x="1040" y="710" as="sourcePoint"/>
                        <mxPoint x="1090" y="660" as="targetPoint"/>
                    </mxGeometry>
                </mxCell>
                <mxCell id="99" value="" style="endArrow=classic;html=1;exitX=0.5;exitY=1;exitDx=0;exitDy=0;entryX=0.5;entryY=0;entryDx=0;entryDy=0;" parent="1" source="84" target="88" edge="1">
                    <mxGeometry width="50" height="50" relative="1" as="geometry">
                        <mxPoint x="1040" y="710" as="sourcePoint"/>
                        <mxPoint x="1090" y="660" as="targetPoint"/>
                    </mxGeometry>
                </mxCell>
                <mxCell id="100" value="" style="endArrow=classic;html=1;exitX=0.5;exitY=1;exitDx=0;exitDy=0;entryX=0.5;entryY=0;entryDx=0;entryDy=0;" parent="1" source="93" target="94" edge="1">
                    <mxGeometry width="50" height="50" relative="1" as="geometry">
                        <mxPoint x="1040" y="710" as="sourcePoint"/>
                        <mxPoint x="1090" y="660" as="targetPoint"/>
                    </mxGeometry>
                </mxCell>
                <mxCell id="101" value="" style="endArrow=classic;html=1;exitX=0.5;exitY=1;exitDx=0;exitDy=0;entryX=0.5;entryY=0;entryDx=0;entryDy=0;" parent="1" source="94" target="95" edge="1">
                    <mxGeometry width="50" height="50" relative="1" as="geometry">
                        <mxPoint x="1040" y="710" as="sourcePoint"/>
                        <mxPoint x="1090" y="660" as="targetPoint"/>
                    </mxGeometry>
                </mxCell>
                <mxCell id="102" value="" style="endArrow=classic;html=1;entryX=0.5;entryY=0;entryDx=0;entryDy=0;exitX=0.5;exitY=1;exitDx=0;exitDy=0;" parent="1" source="89" target="91" edge="1">
                    <mxGeometry width="50" height="50" relative="1" as="geometry">
                        <mxPoint x="1040" y="710" as="sourcePoint"/>
                        <mxPoint x="1090" y="660" as="targetPoint"/>
                    </mxGeometry>
                </mxCell>
                <mxCell id="103" value="Packages" style="rounded=0;whiteSpace=wrap;html=1;fillColor=none;align=left;verticalAlign=top;spacing=10;fontStyle=1" parent="1" vertex="1">
                    <mxGeometry x="520" y="1240" width="320" height="360" as="geometry"/>
                </mxCell>
                <mxCell id="104" value="Nuget" style="rounded=0;whiteSpace=wrap;html=1;" parent="1" vertex="1">
                    <mxGeometry x="600" y="1280" width="160" height="40" as="geometry"/>
                </mxCell>
                <mxCell id="105" value="npm" style="rounded=0;whiteSpace=wrap;html=1;" parent="1" vertex="1">
                    <mxGeometry x="600" y="1360" width="160" height="40" as="geometry"/>
                </mxCell>
                <mxCell id="106" value="pip" style="rounded=0;whiteSpace=wrap;html=1;" parent="1" vertex="1">
                    <mxGeometry x="600" y="1440" width="160" height="40" as="geometry"/>
                </mxCell>
                <mxCell id="107" value="" style="endArrow=classic;html=1;exitX=0.5;exitY=1;exitDx=0;exitDy=0;entryX=0.5;entryY=0;entryDx=0;entryDy=0;" parent="1" source="88" target="103" edge="1">
                    <mxGeometry width="50" height="50" relative="1" as="geometry">
                        <mxPoint x="1040" y="820" as="sourcePoint"/>
                        <mxPoint x="750" y="1220" as="targetPoint"/>
                    </mxGeometry>
                </mxCell>
                <mxCell id="108" value="検証環境&lt;div&gt;(Server)&lt;/div&gt;" style="rounded=0;whiteSpace=wrap;html=1;fontStyle=1;fillColor=#cce5ff;strokeColor=#36393d;sketch=1;curveFitting=1;jiggle=2;fontSize=16;" parent="1" vertex="1">
                    <mxGeometry x="1000" y="20" width="440" height="80" as="geometry"/>
                </mxCell>
                <mxCell id="109" value="" style="endArrow=none;html=1;fontColor=#CCCCCC;strokeColor=#666666;" parent="1" edge="1">
                    <mxGeometry width="50" height="50" relative="1" as="geometry">
                        <mxPoint x="1520" y="40" as="sourcePoint"/>
                        <mxPoint x="1520" y="1600" as="targetPoint"/>
                    </mxGeometry>
                </mxCell>
                <mxCell id="110" value="本番環境&lt;div&gt;(Server)&lt;/div&gt;" style="rounded=0;whiteSpace=wrap;html=1;fontStyle=1;fillColor=#cdeb8b;strokeColor=#36393d;sketch=1;curveFitting=1;jiggle=2;fontSize=16;" parent="1" vertex="1">
                    <mxGeometry x="1599" y="20" width="320" height="80" as="geometry"/>
                </mxCell>
                <mxCell id="111" value="開発者&lt;div&gt;(Service)&lt;/div&gt;" style="rounded=0;whiteSpace=wrap;html=1;fontStyle=1;fillColor=#ffe6cc;strokeColor=#d79b00;sketch=1;curveFitting=1;jiggle=2;fontSize=16;" parent="1" vertex="1">
                    <mxGeometry x="39" y="20" width="320" height="80" as="geometry"/>
                </mxCell>
                <mxCell id="112" value="開発者&lt;div&gt;(Framework)&lt;/div&gt;" style="rounded=0;whiteSpace=wrap;html=1;fontStyle=1;fillColor=#dae8fc;strokeColor=#6c8ebf;gradientColor=none;sketch=1;curveFitting=1;jiggle=2;fontSize=16;" parent="1" vertex="1">
                    <mxGeometry x="-440" y="20" width="320" height="80" as="geometry"/>
                </mxCell>
                <mxCell id="113" value="" style="endArrow=none;html=1;fontColor=#CCCCCC;strokeColor=#666666;" parent="1" edge="1">
                    <mxGeometry width="50" height="50" relative="1" as="geometry">
                        <mxPoint x="-40" y="40" as="sourcePoint"/>
                        <mxPoint x="-40" y="1600" as="targetPoint"/>
                    </mxGeometry>
                </mxCell>
                <mxCell id="114" value="Service領域" style="rounded=0;whiteSpace=wrap;html=1;align=left;verticalAlign=top;spacing=10;fillColor=none;fontStyle=1" parent="1" vertex="1">
                    <mxGeometry x="1000" y="160" width="440" height="640" as="geometry"/>
                </mxCell>
                <mxCell id="115" value="Client領域（WebApp）" style="rounded=0;whiteSpace=wrap;html=1;align=left;verticalAlign=top;spacing=10;fillColor=none;fontStyle=1" parent="1" vertex="1">
                    <mxGeometry x="1000" y="920" width="320" height="600" as="geometry"/>
                </mxCell>
                <mxCell id="116" value="Service領域" style="rounded=0;whiteSpace=wrap;html=1;align=left;verticalAlign=top;spacing=10;fillColor=none;fontStyle=1" parent="1" vertex="1">
                    <mxGeometry x="1599" y="160" width="320" height="680" as="geometry"/>
                </mxCell>
                <mxCell id="117" value="Client領域（WebApp）" style="rounded=0;whiteSpace=wrap;html=1;align=left;verticalAlign=top;spacing=10;fillColor=none;fontStyle=1" parent="1" vertex="1">
                    <mxGeometry x="1599" y="920" width="320" height="600" as="geometry"/>
                </mxCell>
                <mxCell id="118" value="k8s" style="rounded=0;whiteSpace=wrap;html=1;align=left;verticalAlign=top;spacing=10;fillColor=none;fontStyle=1" parent="1" vertex="1">
                    <mxGeometry x="1040" y="240" width="360" height="520" as="geometry"/>
                </mxCell>
                <mxCell id="119" value="k8s" style="rounded=0;whiteSpace=wrap;html=1;align=left;verticalAlign=top;spacing=10;fillColor=none;" parent="1" vertex="1">
                    <mxGeometry x="1639" y="240" width="240" height="560" as="geometry"/>
                </mxCell>
                <mxCell id="120" value="k8s" style="rounded=0;whiteSpace=wrap;html=1;align=left;verticalAlign=top;spacing=10;fillColor=none;" parent="1" vertex="1">
                    <mxGeometry x="1040" y="1000" width="240" height="480" as="geometry"/>
                </mxCell>
                <mxCell id="121" value="k8s" style="rounded=0;whiteSpace=wrap;html=1;align=left;verticalAlign=top;spacing=10;fillColor=none;" parent="1" vertex="1">
                    <mxGeometry x="1639" y="1000" width="240" height="480" as="geometry"/>
                </mxCell>
                <mxCell id="122" value="" style="endArrow=none;html=1;fontColor=#CCCCCC;strokeColor=#666666;" parent="1" edge="1">
                    <mxGeometry width="50" height="50" relative="1" as="geometry">
                        <mxPoint x="1999" y="40" as="sourcePoint"/>
                        <mxPoint x="1999" y="1600" as="targetPoint"/>
                    </mxGeometry>
                </mxCell>
                <mxCell id="125" value="istio" style="rounded=0;whiteSpace=wrap;html=1;align=center;verticalAlign=middle;spacing=10;fillColor=none;" parent="1" vertex="1">
                    <mxGeometry x="1319" y="280" width="60" height="440" as="geometry"/>
                </mxCell>
                <mxCell id="132" value="service" style="rounded=0;whiteSpace=wrap;html=1;" parent="1" vertex="1">
                    <mxGeometry x="1100" y="320" width="120" height="40" as="geometry"/>
                </mxCell>
                <mxCell id="133" value="envoy" style="rounded=0;whiteSpace=wrap;html=1;" parent="1" vertex="1">
                    <mxGeometry x="1100" y="400" width="120" height="40" as="geometry"/>
                </mxCell>
                <mxCell id="139" value="crates.io" style="rounded=0;whiteSpace=wrap;html=1;" parent="1" vertex="1">
                    <mxGeometry x="600" y="1520" width="160" height="40" as="geometry"/>
                </mxCell>
                <mxCell id="141" value="pod" style="rounded=0;whiteSpace=wrap;html=1;align=left;verticalAlign=top;spacing=10;fillColor=none;" parent="1" vertex="1">
                    <mxGeometry x="1080" y="520" width="160" height="200" as="geometry"/>
                </mxCell>
                <mxCell id="142" value="service" style="rounded=0;whiteSpace=wrap;html=1;" parent="1" vertex="1">
                    <mxGeometry x="1100" y="560" width="120" height="40" as="geometry"/>
                </mxCell>
                <mxCell id="143" value="envoy" style="rounded=0;whiteSpace=wrap;html=1;" parent="1" vertex="1">
                    <mxGeometry x="1100" y="640" width="120" height="40" as="geometry"/>
                </mxCell>
                <mxCell id="148" value="" style="endArrow=classic;html=1;entryX=0;entryY=0.5;entryDx=0;entryDy=0;exitX=1;exitY=0.5;exitDx=0;exitDy=0;" parent="1" source="96" target="118" edge="1">
                    <mxGeometry width="50" height="50" relative="1" as="geometry">
                        <mxPoint x="690" y="810" as="sourcePoint"/>
                        <mxPoint x="740" y="760" as="targetPoint"/>
                        <Array as="points">
                            <mxPoint x="880" y="1060"/>
                            <mxPoint x="880" y="500"/>
                        </Array>
                    </mxGeometry>
                </mxCell>
                <mxCell id="149" value="" style="endArrow=classic;startArrow=classic;html=1;entryX=0.5;entryY=1;entryDx=0;entryDy=0;exitX=0.5;exitY=0;exitDx=0;exitDy=0;" parent="1" source="133" target="132" edge="1">
                    <mxGeometry width="50" height="50" relative="1" as="geometry">
                        <mxPoint x="770" y="700" as="sourcePoint"/>
                        <mxPoint x="820" y="650" as="targetPoint"/>
                    </mxGeometry>
                </mxCell>
                <mxCell id="150" value="" style="endArrow=classic;startArrow=classic;html=1;entryX=0.5;entryY=1;entryDx=0;entryDy=0;exitX=0.5;exitY=0;exitDx=0;exitDy=0;" parent="1" source="143" target="142" edge="1">
                    <mxGeometry width="50" height="50" relative="1" as="geometry">
                        <mxPoint x="770" y="700" as="sourcePoint"/>
                        <mxPoint x="820" y="650" as="targetPoint"/>
                    </mxGeometry>
                </mxCell>
                <mxCell id="152" value="" style="endArrow=classic;html=1;entryX=1;entryY=0.5;entryDx=0;entryDy=0;" parent="1" edge="1" target="133">
                    <mxGeometry width="50" height="50" relative="1" as="geometry">
                        <mxPoint x="1320" y="420" as="sourcePoint"/>
                        <mxPoint x="1320" y="660" as="targetPoint"/>
                    </mxGeometry>
                </mxCell>
                <mxCell id="153" value="" style="endArrow=classic;startArrow=classic;html=1;entryX=1;entryY=1;entryDx=0;entryDy=0;exitX=1;exitY=0;exitDx=0;exitDy=0;" parent="1" source="143" target="133" edge="1">
                    <mxGeometry width="50" height="50" relative="1" as="geometry">
                        <mxPoint x="830" y="520" as="sourcePoint"/>
                        <mxPoint x="880" y="470" as="targetPoint"/>
                        <Array as="points">
                            <mxPoint x="1260" y="600"/>
                            <mxPoint x="1260" y="480"/>
                        </Array>
                    </mxGeometry>
                </mxCell>
                <mxCell id="340" value="" style="endArrow=classic;html=1;entryX=1;entryY=0.5;entryDx=0;entryDy=0;" edge="1" parent="1" target="143">
                    <mxGeometry width="50" height="50" relative="1" as="geometry">
                        <mxPoint x="1320" y="660" as="sourcePoint"/>
                        <mxPoint x="1230" y="430" as="targetPoint"/>
                    </mxGeometry>
                </mxCell>
                <mxCell id="341" value="feature" style="shape=cylinder3;whiteSpace=wrap;html=1;boundedLbl=1;backgroundOutline=1;size=15;" vertex="1" parent="1">
                    <mxGeometry x="119" y="680" width="160" height="80" as="geometry"/>
                </mxCell>
                <mxCell id="343" value="PG" style="rounded=0;whiteSpace=wrap;html=1;" vertex="1" parent="1">
                    <mxGeometry x="99" y="840" width="100" height="80" as="geometry"/>
                </mxCell>
                <mxCell id="344" value="FW" style="rounded=0;whiteSpace=wrap;html=1;" vertex="1" parent="1">
                    <mxGeometry x="199" y="840" width="100" height="80" as="geometry"/>
                </mxCell>
                <mxCell id="346" value="" style="endArrow=classic;html=1;entryX=0.5;entryY=1;entryDx=0;entryDy=0;entryPerimeter=0;exitX=0.5;exitY=0;exitDx=0;exitDy=0;" edge="1" parent="1" source="343" target="341">
                    <mxGeometry width="50" height="50" relative="1" as="geometry">
                        <mxPoint x="919" y="1060" as="sourcePoint"/>
                        <mxPoint x="969" y="1010" as="targetPoint"/>
                        <Array as="points">
                            <mxPoint x="149" y="800"/>
                            <mxPoint x="199" y="800"/>
                        </Array>
                    </mxGeometry>
                </mxCell>
                <mxCell id="347" value="" style="endArrow=classic;html=1;exitX=1;exitY=0.5;exitDx=0;exitDy=0;exitPerimeter=0;entryX=0;entryY=0.5;entryDx=0;entryDy=0;entryPerimeter=0;" edge="1" parent="1" source="341" target="85">
                    <mxGeometry width="50" height="50" relative="1" as="geometry">
                        <mxPoint x="919" y="580" as="sourcePoint"/>
                        <mxPoint x="969" y="530" as="targetPoint"/>
                        <Array as="points">
                            <mxPoint x="400" y="720"/>
                            <mxPoint x="400" y="440"/>
                            <mxPoint x="480" y="440"/>
                            <mxPoint x="480" y="240"/>
                        </Array>
                    </mxGeometry>
                </mxCell>
                <mxCell id="348" value="" style="endArrow=classic;html=1;entryX=0.5;entryY=1;entryDx=0;entryDy=0;exitX=0;exitY=0.5;exitDx=0;exitDy=0;" edge="1" parent="1" source="103" target="344">
                    <mxGeometry width="50" height="50" relative="1" as="geometry">
                        <mxPoint x="610" y="1020" as="sourcePoint"/>
                        <mxPoint x="660" y="970" as="targetPoint"/>
                        <Array as="points">
                            <mxPoint x="400" y="1420"/>
                            <mxPoint x="400" y="1040"/>
                            <mxPoint x="250" y="1040"/>
                        </Array>
                    </mxGeometry>
                </mxCell>
                <mxCell id="349" value="PC" style="rounded=0;whiteSpace=wrap;html=1;align=left;verticalAlign=top;spacing=10;fillColor=none;" vertex="1" parent="1">
                    <mxGeometry x="-440" y="160" width="320" height="320" as="geometry"/>
                </mxCell>
                <mxCell id="350" value="feature" style="shape=cylinder3;whiteSpace=wrap;html=1;boundedLbl=1;backgroundOutline=1;size=15;" vertex="1" parent="1">
                    <mxGeometry x="-360" y="200" width="160" height="80" as="geometry"/>
                </mxCell>
                <mxCell id="351" value="FW" style="rounded=0;whiteSpace=wrap;html=1;" vertex="1" parent="1">
                    <mxGeometry x="-330" y="340" width="100" height="80" as="geometry"/>
                </mxCell>
                <mxCell id="352" value="" style="endArrow=classic;html=1;entryX=0.5;entryY=1;entryDx=0;entryDy=0;entryPerimeter=0;exitX=0.5;exitY=0;exitDx=0;exitDy=0;" edge="1" parent="1" source="351" target="350">
                    <mxGeometry width="50" height="50" relative="1" as="geometry">
                        <mxPoint x="610" y="660" as="sourcePoint"/>
                        <mxPoint x="660" y="610" as="targetPoint"/>
                    </mxGeometry>
                </mxCell>
                <mxCell id="353" value="" style="endArrow=classic;html=1;exitX=1;exitY=0.5;exitDx=0;exitDy=0;exitPerimeter=0;entryX=0;entryY=0.5;entryDx=0;entryDy=0;entryPerimeter=0;" edge="1" parent="1" source="350" target="85">
                    <mxGeometry width="50" height="50" relative="1" as="geometry">
                        <mxPoint x="610" y="660" as="sourcePoint"/>
                        <mxPoint x="660" y="610" as="targetPoint"/>
                    </mxGeometry>
                </mxCell>
            </root>
        </mxGraphModel>
    </diagram>
</mxfile>